<?xml version="1.0" encoding="UTF-8"?>
<svg version="1.1" xmlns="http://www.w3.org/2000/svg" width="1024" height="1024" viewBox="277 260 470 470">
<path d="M0 0 C2.22686459 0.15021087 4.45355753 0.30296778 6.68017578 0.45678711 C8.54018723 0.58397377 8.54018723 0.58397377 10.43777466 0.71372986 C61.35165 4.80530771 109.75561663 34.96994523 142.6640625 72.91894531 C145.60734661 76.49771122 148.32656251 80.21478483 151 84 C151.59425781 84.79921875 152.18851563 85.5984375 152.80078125 86.421875 C172.23014766 113.04234025 183.08434628 142.8131499 189 175 C189.19722656 176.04414063 189.39445313 177.08828125 189.59765625 178.1640625 C190.12993962 181.91588506 190.36514684 185.65489786 190.5625 189.4375 C190.6042334 190.23244873 190.6459668 191.02739746 190.68896484 191.84643555 C191.39578122 206.27847207 190.78307294 220.58604295 190 235 C189.34 235 188.68 235 188 235 C188.0309375 236.423125 188.0309375 236.423125 188.0625 237.875 C188.07223474 242.61581985 187.53024009 247.29411917 187 252 C186.34 252 185.68 252 185 252 C184.87753906 253.00546875 184.75507812 254.0109375 184.62890625 255.046875 C178.85831352 295.06969904 148.65216296 337.25019891 117 361 C116.44231934 361.42732422 115.88463867 361.85464844 115.31005859 362.29492188 C101.10128493 373.17429786 86.33894994 381.72989763 70 389 C68.47826172 389.69222656 68.47826172 389.69222656 66.92578125 390.3984375 C45.75240811 399.67101653 23.77630826 403.23051015 1 406 C-0.94851532 401.90735178 -1.24456594 398.63446931 -1.23047829 394.12219524 C-1.2310976 393.43938817 -1.23171692 392.75658111 -1.232355 392.05308291 C-1.23197304 389.76033776 -1.21721158 387.46791169 -1.20254517 385.17521667 C-1.19928706 383.51685792 -1.19691332 381.85849723 -1.1953491 380.20013601 C-1.18848179 375.63934345 -1.16904343 371.0786771 -1.14758825 366.51793301 C-1.12664799 361.60115602 -1.11731499 356.68435556 -1.10658264 351.76754761 C-1.08639187 343.24759728 -1.05882328 334.72769634 -1.02626419 326.20778465 C-0.97919968 313.88937853 -0.94323004 301.57095975 -0.90998094 289.25250951 C-0.85573651 269.26735126 -0.79250111 249.28223195 -0.72363281 229.29711914 C-0.65674711 209.88176715 -0.5940826 190.46640911 -0.53710938 171.05102539 C-0.53359693 169.85455378 -0.53008449 168.65808217 -0.52646561 167.42535385 C-0.50887106 161.42309465 -0.49135966 155.42083521 -0.47388959 149.41857564 C-0.32881688 99.6123402 -0.16916166 49.80615905 0 0 Z " fill="#1AC8BA" transform="translate(530,292)"/>
<path d="M0 0 C0.99305208 0.00259732 1.98610416 0.00519464 3.00924873 0.00787067 C3.76745855 0.01121009 4.52566837 0.0145495 5.30685425 0.01799011 C5.42356716 25.37369199 5.51178343 50.7293537 5.56591511 76.08526993 C5.59171554 87.8580192 5.62690132 99.63060175 5.68405151 111.40324402 C5.73383002 121.66223374 5.76613187 131.92110274 5.77729672 142.18020988 C5.78382486 147.61424688 5.79920619 153.04793845 5.83550453 158.48186493 C5.86937616 163.59379826 5.87992505 168.70524302 5.87239265 173.81727791 C5.87377116 175.69586655 5.88375611 177.57447109 5.90288162 179.45296288 C5.92768224 182.01391944 5.92180791 184.57302036 5.90812683 187.13401794 C5.92997314 188.25464327 5.92997314 188.25464327 5.95226079 189.3979075 C5.89802801 193.14168343 5.63855205 194.68234055 2.96312237 197.38964462 C2.08655389 197.92699863 1.20998541 198.46435265 0.30685425 199.01799011 C-0.71666138 199.65736511 -1.740177 200.29674011 -2.79470825 200.95549011 C-3.96747528 201.6459067 -5.14206585 202.33323203 -6.31814575 203.01799011 C-12.21557926 206.50396995 -18.03566047 210.09460889 -23.81814575 213.76799011 C-30.51937344 218.02271629 -37.24840701 222.22780217 -44.00564575 226.39299011 C-52.12941204 231.40503232 -60.19597675 236.50096496 -68.24002075 241.63981628 C-75.13448781 246.03954283 -82.06347071 250.38150366 -89.00564575 254.70549011 C-96.43984199 259.33763428 -103.83261475 264.02222196 -111.16946411 268.80680847 C-118.40539311 273.51046668 -125.73173495 278.06870892 -133.05838013 282.62931824 C-144.77231422 289.86466707 -144.77231422 289.86466707 -156.25564575 297.45549011 C-158.69314575 299.01799011 -158.69314575 299.01799011 -160.69314575 299.01799011 C-187.05251716 252.74888073 -193.207771 199.02157784 -179.31716919 147.6368866 C-176.07322157 136.29303736 -171.95623403 125.57074793 -166.69314575 115.01799011 C-166.32930786 114.28467468 -165.96546997 113.55135925 -165.59060669 112.79582214 C-157.70835487 97.06898347 -147.96916792 83.47399206 -136.69314575 70.01799011 C-136.02025513 69.21103699 -135.3473645 68.40408386 -134.65408325 67.57267761 C-126.86035088 58.44920891 -118.21233267 50.31133872 -108.69314575 43.01799011 C-108.05908813 42.52927429 -107.42503052 42.04055847 -106.77175903 41.53703308 C-80.21016401 21.23919852 -49.7231728 7.67239497 -16.81814575 1.70549011 C-15.40928101 1.44759705 -15.40928101 1.44759705 -13.97195435 1.18449402 C-13.05752563 1.03028992 -12.14309692 0.87608582 -11.20095825 0.71720886 C-10.4031897 0.58145447 -9.60542114 0.44570007 -8.78347778 0.30583191 C-5.82721489 0.03047767 -2.96746683 -0.01005964 0 0 Z " fill="#004CAD" transform="translate(488.6931457519531,291.9820098876953)"/>
<path d="M0 0 C2.22686459 0.15021087 4.45355753 0.30296778 6.68017578 0.45678711 C8.54018723 0.58397377 8.54018723 0.58397377 10.43777466 0.71372986 C61.35165 4.80530771 109.75561663 34.96994523 142.6640625 72.91894531 C145.60734661 76.49771122 148.32656251 80.21478483 151 84 C151.59425781 84.79921875 152.18851563 85.5984375 152.80078125 86.421875 C160.7713443 97.34246254 169.26737128 110.2797219 174 123 C173.67 123.99 173.34 124.98 173 126 C170.03 120.39 167.06 114.78 164 109 C150.5698425 117.12580958 137.32723452 125.51100399 124.12207031 133.99658203 C110.22596274 142.9136495 96.2702145 151.7376062 82.3046875 160.54541016 C80.01454836 161.99081789 77.72580343 163.43840684 75.4375 164.88671875 C66.64199051 170.45189105 57.8289132 175.98795706 49 181.5 C41.61587819 186.11060508 34.23656224 190.72844146 26.875 195.375 C26.11002197 195.85743164 25.34504395 196.33986328 24.55688477 196.83691406 C20.95101784 199.1157875 17.35745845 201.41100227 13.78515625 203.7421875 C13.13240723 204.16709473 12.4796582 204.59200195 11.80712891 205.02978516 C10.59703571 205.81955347 9.38949382 206.61325068 8.18505859 207.41162109 C4.22057951 210 4.22057951 210 2 210 C2 274.02 2 338.04 2 404 C32.74155023 399.16310457 32.74155023 399.16310457 62.01708984 389.79125977 C66.69367008 387.89789003 66.69367008 387.89789003 70 389 C47.79903843 399.01480502 25.02294707 403.07892485 1 406 C-0.94851532 401.90735178 -1.24456594 398.63446931 -1.23047829 394.12219524 C-1.2310976 393.43938817 -1.23171692 392.75658111 -1.232355 392.05308291 C-1.23197304 389.76033776 -1.21721158 387.46791169 -1.20254517 385.17521667 C-1.19928706 383.51685792 -1.19691332 381.85849723 -1.1953491 380.20013601 C-1.18848179 375.63934345 -1.16904343 371.0786771 -1.14758825 366.51793301 C-1.12664799 361.60115602 -1.11731499 356.68435556 -1.10658264 351.76754761 C-1.08639187 343.24759728 -1.05882328 334.72769634 -1.02626419 326.20778465 C-0.97919968 313.88937853 -0.94323004 301.57095975 -0.90998094 289.25250951 C-0.85573651 269.26735126 -0.79250111 249.28223195 -0.72363281 229.29711914 C-0.65674711 209.88176715 -0.5940826 190.46640911 -0.53710938 171.05102539 C-0.53359693 169.85455378 -0.53008449 168.65808217 -0.52646561 167.42535385 C-0.50887106 161.42309465 -0.49135966 155.42083521 -0.47388959 149.41857564 C-0.32881688 99.6123402 -0.16916166 49.80615905 0 0 Z " fill="#07B1B4" transform="translate(530,292)"/>
<path d="M0 0 C2.29599935 3.64620562 2.24674143 6.7223438 2.24050903 10.97283936 C2.24221788 11.67454451 2.24392673 12.37624966 2.24568737 13.09921861 C2.24898111 15.45003875 2.23798062 17.80057334 2.22705078 20.15136719 C2.22648664 21.83666477 2.22680328 23.52196284 2.22793579 25.20726013 C2.2285102 29.78336658 2.21674163 34.35936843 2.20278788 38.93545055 C2.1902952 43.71739867 2.18911117 48.49934912 2.18673706 53.28131104 C2.18051799 62.33706382 2.16410139 71.39276838 2.14403808 80.44849992 C2.12169237 90.75794237 2.11068899 101.06738711 2.10064721 111.37684774 C2.07973554 132.58459209 2.04455126 153.79229301 2 175 C0.57081778 175.01237766 -0.85839575 175.02117134 -2.28761292 175.0284729 C-3.08350106 175.03375818 -3.87938921 175.03904346 -4.69939518 175.04448891 C-7.7480381 174.9855345 -10.6039244 174.50279324 -13.58984375 173.8984375 C-14.77707031 173.65891357 -15.96429688 173.41938965 -17.1875 173.17260742 C-18.425 172.90939697 -19.6625 172.64618652 -20.9375 172.375 C-22.22785156 172.10212158 -23.51820313 171.82924316 -24.84765625 171.5480957 C-34.85945624 169.36804632 -44.47244833 166.7658307 -54 163 C-54.8343457 162.67128906 -55.66869141 162.34257813 -56.52832031 162.00390625 C-78.21164025 153.33375416 -97.30911064 141.90293265 -115.46826172 127.22460938 C-116.92902815 126.05674128 -118.41903241 124.9257258 -119.91015625 123.796875 C-120.59980469 123.20390625 -121.28945313 122.6109375 -122 122 C-122 121.34 -122 120.68 -122 120 C-122.58394531 119.74089844 -123.16789062 119.48179687 -123.76953125 119.21484375 C-131.72040753 114.88433145 -137.4795462 105.94207442 -143 99 C-143.76828125 98.12730469 -144.5365625 97.25460937 -145.328125 96.35546875 C-145.87984375 95.57816406 -146.4315625 94.80085937 -147 94 C-145.56969477 89.70908432 -142.38680205 88.65488294 -138.625 86.5625 C-137.0557288 85.66548905 -135.48807566 84.76564273 -133.921875 83.86328125 C-133.10654297 83.3935791 -132.29121094 82.92387695 -131.45117188 82.43994141 C-127.53211429 80.13769024 -123.70469162 77.69710803 -119.875 75.25 C-112.8414625 70.76989196 -105.75554934 66.38654055 -98.625 62.0625 C-90.43056146 57.09267127 -82.26205309 52.08439142 -74.11889648 47.03100586 C-67.15354959 42.70972464 -60.17195986 38.41530642 -53.1875 34.125 C-43.53272325 28.19310631 -33.9131766 22.20742365 -24.31689453 16.18139648 C-18.0024561 12.2243555 -11.65278551 8.33705969 -5.19848633 4.61157227 C-2.04773852 2.86177617 -2.04773852 2.86177617 0 0 Z " fill="#003893" transform="translate(492,522)"/>
<path d="M0 0 C0.13898278 10.10067624 0.24561191 20.20112527 0.31087303 30.30256271 C0.34219456 34.99306749 0.38468159 39.68291844 0.45263672 44.37304688 C0.51780118 48.89886146 0.55369985 53.42404701 0.56926346 57.95029449 C0.58035518 59.67756303 0.60201542 61.40479688 0.63438034 63.13179779 C0.67790848 65.55053741 0.68393615 67.96667431 0.68115234 70.38574219 C0.702724 71.10071869 0.72429565 71.81569519 0.746521 72.55233765 C0.7215271 74.55780029 0.7215271 74.55780029 0 78 C-2.91287231 80.34754944 -2.91287231 80.34754944 -6 82 C-7.3403319 83.32629784 -8.6741711 84.65920423 -10 86 C-11.56642756 87.0961969 -13.16871817 88.14230957 -14.796875 89.14453125 C-15.74320801 89.73113525 -16.68954102 90.31773926 -17.66455078 90.92211914 C-18.68274902 91.54594482 -19.70094727 92.16977051 -20.75 92.8125 C-22.92975681 94.16134633 -25.10944233 95.51030787 -27.2890625 96.859375 C-28.96210449 97.89094727 -28.96210449 97.89094727 -30.66894531 98.94335938 C-35.83244553 102.13137798 -40.97932275 105.34581926 -46.125 108.5625 C-47.11854492 109.18294189 -48.11208984 109.80338379 -49.13574219 110.44262695 C-56.68390572 115.16176634 -64.19736426 119.93371182 -71.70043945 124.72412109 C-78.54448435 129.08842176 -85.42286797 133.39559808 -92.3125 137.6875 C-99.74666206 142.31969997 -107.13946796 147.00423117 -114.47631836 151.78881836 C-121.71224736 156.49247657 -129.03858919 161.05071881 -136.36523438 165.61132812 C-148.07916847 172.84667696 -148.07916847 172.84667696 -159.5625 180.4375 C-162 182 -162 182 -164 182 C-164.9702321 180.34023188 -165.92555673 178.671747 -166.875 177 C-167.40867187 176.071875 -167.94234375 175.14375 -168.4921875 174.1875 C-169.95430759 171.09659328 -170.70835978 168.33973342 -171.46337891 165.03564453 C-172.34666391 161.68494829 -173.83664659 158.58949936 -175.25 155.4375 C-178.25039779 148.44054377 -180.48956491 141.35682774 -182.4375 134 C-182.6962793 133.04536865 -182.95505859 132.0907373 -183.22167969 131.10717773 C-186.40212832 118.62206269 -186.40212832 118.62206269 -185 114 C-182.61495756 111.38009969 -179.78213342 109.86182743 -176.6875 108.1875 C-174.92135728 107.15583371 -173.1557458 106.12325751 -171.390625 105.08984375 C-170.48634766 104.57534668 -169.58207031 104.06084961 -168.65039062 103.53076172 C-164.66491898 101.22890955 -160.80868889 98.73745192 -156.9375 96.25 C-148.21867453 90.72271507 -139.42054954 85.32565874 -130.62158203 79.92724609 C-124.15531476 75.95566606 -117.71649374 71.94614467 -111.3125 67.875 C-103.56648656 62.95313197 -95.73951505 58.17351982 -87.89111328 53.41699219 C-80.95544059 49.2070745 -74.06124666 44.93520497 -67.1875 40.625 C-58.7527886 35.33607762 -50.2948009 30.08727982 -41.8125 24.875 C-40.73411865 24.21226074 -39.6557373 23.54952148 -38.54467773 22.86669922 C-36.40756337 21.55336705 -34.27043788 20.24005298 -32.13330078 18.92675781 C-27.16852718 15.87377408 -22.20793496 12.81407494 -17.25 9.75 C-16.39897705 9.22519043 -15.5479541 8.70038086 -14.67114258 8.15966797 C-11.25155138 6.04467875 -7.85849032 3.92160491 -4.546875 1.640625 C-2 0 -2 0 0 0 Z " fill="#0073D2" transform="translate(492,409)"/>
<path d="M0 0 C3.96 0.33 7.92 0.66 12 1 C12 1.33 12 1.66 12 2 C8.7 2 5.4 2 2 2 C2.33 69.65 2.66 137.3 3 207 C6.96 205.02 6.96 205.02 11 203 C11.99 202.67 12.98 202.34 14 202 C14 201.34 14 200.68 14 200 C14.6084375 199.68289063 15.216875 199.36578125 15.84375 199.0390625 C22.68350244 195.39790017 29.21502004 191.4172787 35.69140625 187.16455078 C37.42433284 186.05058698 39.20861859 185.0173016 41 184 C41.66 184.33 42.32 184.66 43 185 C33.94123225 190.89225866 24.86407022 196.75609147 15.75 202.5625 C14.95295654 203.07458008 14.15591309 203.58666016 13.3347168 204.11425781 C12.579729 204.5934668 11.82474121 205.07267578 11.046875 205.56640625 C10.38526367 205.98865479 9.72365234 206.41090332 9.04199219 206.84594727 C7 208 7 208 2 210 C2 274.02 2 338.04 2 404 C32.74155023 399.16310457 32.74155023 399.16310457 62.01708984 389.79125977 C66.69367008 387.89789003 66.69367008 387.89789003 70 389 C47.79903843 399.01480502 25.02294707 403.07892485 1 406 C-0.94851532 401.90735178 -1.24456594 398.63446931 -1.23047829 394.12219524 C-1.2310976 393.43938817 -1.23171692 392.75658111 -1.232355 392.05308291 C-1.23197304 389.76033776 -1.21721158 387.46791169 -1.20254517 385.17521667 C-1.19928706 383.51685792 -1.19691332 381.85849723 -1.1953491 380.20013601 C-1.18848179 375.63934345 -1.16904343 371.0786771 -1.14758825 366.51793301 C-1.12664799 361.60115602 -1.11731499 356.68435556 -1.10658264 351.76754761 C-1.08639187 343.24759728 -1.05882328 334.72769634 -1.02626419 326.20778465 C-0.97919968 313.88937853 -0.94323004 301.57095975 -0.90998094 289.25250951 C-0.85573651 269.26735126 -0.79250111 249.28223195 -0.72363281 229.29711914 C-0.65674711 209.88176715 -0.5940826 190.46640911 -0.53710938 171.05102539 C-0.53359693 169.85455378 -0.53008449 168.65808217 -0.52646561 167.42535385 C-0.50887106 161.42309465 -0.49135966 155.42083521 -0.47388959 149.41857564 C-0.32881688 99.6123402 -0.16916166 49.80615905 0 0 Z " fill="#0C8F9D" transform="translate(530,292)"/>
<path d="M0 0 C0.99 0.495 0.99 0.495 2 1 C-12.14882604 10.30117812 -26.55413557 19.16931303 -41 28 C-41.92216309 28.56380371 -42.84432617 29.12760742 -43.79443359 29.70849609 C-50.31517943 33.69414692 -50.31517943 33.69414692 -53.21850586 35.46289062 C-57.83300683 38.27592962 -62.42251811 41.12712564 -67 44 C-63.86676585 48.95774642 -60.29193594 53.33625896 -56.4375 57.75 C-55.5722168 58.75740234 -55.5722168 58.75740234 -54.68945312 59.78515625 C-53.85124023 60.75001953 -53.85124023 60.75001953 -52.99609375 61.734375 C-52.49263428 62.31413086 -51.9891748 62.89388672 -51.47045898 63.49121094 C-49.87274677 65.23557389 -49.87274677 65.23557389 -47 67 C-47 67.66 -47 68.32 -47 69 C-46.43023437 69.2475 -45.86046875 69.495 -45.2734375 69.75 C-42.63950019 71.19821295 -40.79819628 72.9232254 -38.625 75 C-27.59481091 85.06404114 -15.00848844 92.76706452 -2 100 C-0.89527344 100.61617187 0.20945312 101.23234375 1.34765625 101.8671875 C12.41758911 107.70479486 24.25042272 111.7586256 36 116 C36 116.33 36 116.66 36 117 C30.44738212 116.42357843 25.73537107 115.0034839 20.5625 112.9375 C19.78116699 112.62876953 18.99983398 112.32003906 18.19482422 112.00195312 C-2.46205578 103.6741138 -21.59715563 92.26283783 -38.66015625 77.9453125 C-40.9483418 75.99156017 -40.9483418 75.99156017 -43.30859375 74.3671875 C-43.86675781 73.91601562 -44.42492187 73.46484375 -45 73 C-45 72.34 -45 71.68 -45 71 C-45.58394531 70.74089844 -46.16789062 70.48179687 -46.76953125 70.21484375 C-54.72040753 65.88433145 -60.4795462 56.94207442 -66 50 C-66.76828125 49.12730469 -67.5365625 48.25460937 -68.328125 47.35546875 C-68.87984375 46.57816406 -69.4315625 45.80085937 -70 45 C-68.56969477 40.70908432 -65.38680205 39.65488294 -61.625 37.5625 C-60.0557288 36.66548905 -58.48807566 35.76564273 -56.921875 34.86328125 C-55.69887695 34.15872803 -55.69887695 34.15872803 -54.45117188 33.43994141 C-50.53211488 31.13769059 -46.70468617 28.69711626 -42.875 26.25 C-32.89509897 19.89310358 -22.80533722 13.71977198 -12.66748047 7.61816406 C-10.82391901 6.49981102 -8.99013063 5.36524484 -7.16455078 4.21777344 C-5.81659424 3.37907715 -5.81659424 3.37907715 -4.44140625 2.5234375 C-3.63517822 2.01474121 -2.8289502 1.50604492 -1.99829102 0.98193359 C-1.33885498 0.65789551 -0.67941895 0.33385742 0 0 Z " fill="#062564" transform="translate(415,571)"/>
<path d="M0 0 C0.33 0 0.66 0 1 0 C1.96062184 34.90861979 2.13009751 69.80300363 2.07202661 104.72186911 C2.06054312 111.75778967 2.05527573 118.79371162 2.05032361 125.82963932 C2.04006661 140.21976919 2.02265802 154.60988433 2 169 C0.57545309 169.01411619 -0.84913482 169.02412747 -2.27372742 169.03244019 C-3.46369339 169.04147275 -3.46369339 169.04147275 -4.67769909 169.05068779 C-7.90440473 168.98025998 -10.92661685 168.4169801 -14.08203125 167.7578125 C-15.34337891 167.49613281 -16.60472656 167.23445312 -17.90429688 166.96484375 C-19.19400391 166.68769531 -20.48371094 166.41054688 -21.8125 166.125 C-23.13462315 165.85217321 -24.45688816 165.58003296 -25.77929688 165.30859375 C-36.3081623 163.09142127 -36.3081623 163.09142127 -40 161 C-35.96746876 159.65582292 -32.92149217 160.7920992 -28.9375 161.8125 C-27.39348743 162.19115882 -25.84921732 162.56876909 -24.3046875 162.9453125 C-23.56057617 163.12868164 -22.81646484 163.31205078 -22.04980469 163.50097656 C-14.6912017 165.29242302 -7.58358707 166.24164129 0 167 C0 111.89 0 56.78 0 0 Z " fill="#041F59" transform="translate(492,528)"/>
<path d="M0 0 C0.33 0 0.66 0 1 0 C0.99777939 0.70077667 0.99555878 1.40155334 0.99327087 2.12356567 C0.97319201 8.74395822 0.95798721 15.3643422 0.94818783 21.98475838 C0.94298044 25.38796417 0.93592192 28.79114469 0.92456055 32.19433594 C0.91156647 36.111325 0.90675405 40.028304 0.90234375 43.9453125 C0.89718246 45.16115021 0.89202118 46.37698792 0.88670349 47.62966919 C0.88662796 48.77039886 0.88655243 49.91112854 0.88647461 51.08642578 C0.884254 52.08570099 0.88203339 53.0849762 0.87974548 54.11453247 C1.00612681 57.14701071 1.46913927 60.0146131 2 63 C2.01422904 64.56295652 1.97574526 66.12748149 1.87890625 67.6875 C1.83056641 68.54496826 1.78222656 69.40243652 1.73242188 70.28588867 C1.64831055 71.62937378 1.64831055 71.62937378 1.5625 73 C1.13815109 80.51582168 0.91960751 87.95182086 1.0625 95.48046875 C1 98 1 98 0 100 C16.75075985 98.49355583 33.79985505 95.73626405 49.59765625 89.796875 C52.37351397 88.87610268 55.10976141 88.4194831 58 88 C58 87.34 58 86.68 58 86 C59.32 86 60.64 86 62 86 C62 86.66 62 87.32 62 88 C41.85058556 95.10881896 20.62775652 102.14262121 -1 102 C-1.02322535 90.17740102 -1.04096692 78.35480752 -1.05181217 66.53219032 C-1.05701875 61.04179704 -1.0640758 55.55141942 -1.07543945 50.06103516 C-1.08634764 44.75719423 -1.09229359 39.45336834 -1.09487724 34.14951706 C-1.09671724 32.13145079 -1.10031018 30.1133853 -1.10573006 28.09532547 C-1.11304588 25.25705472 -1.11398653 22.41884515 -1.11352539 19.58056641 C-1.11712067 18.75625122 -1.12071594 17.93193604 -1.12442017 17.0826416 C-1.11439661 11.33793507 -0.66205413 5.7052472 0 0 Z " fill="#05B2B8" transform="translate(533,594)"/>
<path d="M0 0 C0.33 0 0.66 0 1 0 C2.03859414 31.66883476 2.11721904 63.31630379 2 95 C32.61408817 90.29354627 32.61408817 90.29354627 62.01708984 80.79125977 C66.69367008 78.89789003 66.69367008 78.89789003 70 80 C47.79903843 90.01480502 25.02294707 94.07892485 1 97 C-1.39986136 92.31258497 -1.2359558 88.11485619 -1.13525391 82.98706055 C-1.12579239 82.08900192 -1.11633087 81.1909433 -1.10658264 80.26567078 C-1.07298232 77.30580952 -1.02484569 74.34637386 -0.9765625 71.38671875 C-0.95038741 69.33121341 -0.92512104 67.27569631 -0.90072632 65.22016907 C-0.83415356 59.81628516 -0.75524359 54.41264918 -0.67376709 49.00897217 C-0.59277082 43.4924062 -0.52343812 37.97569502 -0.453125 32.45898438 C-0.31350109 21.63914886 -0.16084383 10.81953941 0 0 Z " fill="#0B7F8E" transform="translate(530,601)"/>
<path d="M0 0 C3.96 0.33 7.92 0.66 12 1 C12 1.33 12 1.66 12 2 C8.7 2 5.4 2 2 2 C2 36.98 2 71.96 2 108 C1.67 108 1.34 108 1 108 C0.11148256 101.92607572 -0.13785626 96.045533 -0.11352539 89.91210938 C-0.11367142 88.93558411 -0.11381744 87.95905884 -0.1139679 86.95294189 C-0.1132755 83.74985473 -0.10551479 80.54682691 -0.09765625 77.34375 C-0.09578968 75.1131595 -0.0943669 72.88256859 -0.09336853 70.65197754 C-0.0895622 64.79946752 -0.07974807 58.94698258 -0.06866455 53.09448242 C-0.05840984 47.11507506 -0.05386223 41.13566363 -0.04882812 35.15625 C-0.03812404 23.43748902 -0.02107035 11.7187466 0 0 Z " fill="#0E949E" transform="translate(530,292)"/>
<path d="M0 0 C0.66 0 1.32 0 2 0 C2 53.46 2 106.92 2 162 C1.67 162 1.34 162 1 162 C0.99576806 161.18847568 0.99153612 160.37695135 0.98717594 159.54083538 C0.88395535 139.81169409 0.77533054 120.08258905 0.66066074 100.35351086 C0.60533861 90.81275349 0.55185826 81.27199238 0.50268555 71.73120117 C0.45983136 63.41726832 0.41355022 55.10336289 0.36312145 46.7894724 C0.33653049 42.3857057 0.31167763 37.9819444 0.29092598 33.57814598 C0.27135155 29.43564812 0.24720531 25.2932024 0.21950912 21.15075111 C0.21014297 19.62815421 0.20246612 18.10554586 0.19658089 16.58293152 C0.18831231 14.50824849 0.17403356 12.43369177 0.15821838 10.35905457 C0.15176583 9.19667361 0.14531328 8.03429266 0.1386652 6.83668804 C0.12395234 3.92263761 0.12395234 3.92263761 -1 1 C-0.67 0.67 -0.34 0.34 0 0 Z " fill="#0445A2" transform="translate(490,526)"/>
<path d="M0 0 C0.33 0 0.66 0 1 0 C1.33 9.24 1.66 18.48 2 28 C2.33 28 2.66 28 3 28 C3 38.23 3 48.46 3 59 C2.67 59 2.34 59 2 59 C1.67 75.17 1.34 91.34 1 108 C0.67 108 0.34 108 0 108 C0 72.36 0 36.72 0 0 Z " fill="#0356B1" transform="translate(491,296)"/>
<path d="M0 0 C0.66 0 1.32 0 2 0 C2 25.74 2 51.48 2 78 C1.67 78 1.34 78 1 78 C1 53.25 1 28.5 1 3 C-13.54099344 10.61188783 -13.54099344 10.61188783 -20 16 C-22.8125 17.25 -22.8125 17.25 -25 18 C-23.71697652 14.15092955 -22.35179614 13.72263742 -18.90625 11.6796875 C-17.87628906 11.06222656 -16.84632813 10.44476563 -15.78515625 9.80859375 C-14.15900391 8.85146484 -14.15900391 8.85146484 -12.5 7.875 C-10.36399903 6.60254282 -8.22855151 5.32915599 -6.09375 4.0546875 C-4.66579102 3.21139893 -4.66579102 3.21139893 -3.20898438 2.35107422 C-1.1040899 1.18218175 -1.1040899 1.18218175 0 0 Z " fill="#009DEF" transform="translate(490,409)"/>
<path d="M0 0 C0.99 0.495 0.99 0.495 2 1 C-3.13116909 5.20692124 -8.56189893 8.52344579 -14.35400391 11.74707031 C-20.91646781 15.44074518 -27.12247971 19.63398172 -33.34130859 23.87304688 C-35.88246991 25.59957037 -38.4437927 27.2958618 -41 29 C-41.75023437 29.515625 -42.50046875 30.03125 -43.2734375 30.5625 C-49.53607908 34.84623996 -55.88576283 38.33216106 -63 41 C-59.20728301 36.60509674 -54.34903773 33.96541501 -49.4375 31 C-47.53208604 29.83539757 -45.62714767 28.67001671 -43.72265625 27.50390625 C-42.76246582 26.91754395 -41.80227539 26.33118164 -40.81298828 25.72705078 C-36.64361512 23.16723949 -32.50765404 20.5560351 -28.375 17.9375 C-27.61251953 17.45643799 -26.85003906 16.97537598 -26.06445312 16.47973633 C-21.91427004 13.85877508 -17.78038399 11.21470197 -13.66015625 8.546875 C-12.78633301 7.98492432 -11.91250977 7.42297363 -11.01220703 6.84399414 C-9.32529446 5.75868201 -7.64249652 4.66694145 -5.96435547 3.56811523 C-5.2117041 3.08544189 -4.45905273 2.60276855 -3.68359375 2.10546875 C-3.01900146 1.67387451 -2.35440918 1.24228027 -1.66967773 0.79760742 C-1.11868408 0.53439697 -0.56769043 0.27118652 0 0 Z " fill="#2DEAC4" transform="translate(602,458)"/>
<path d="M0 0 C0.66 0.33 1.32 0.66 2 1 C-1.27529865 3.72745193 -4.53187085 5.98565929 -8.25 8.0625 C-13.47553169 11.06234227 -18.56730476 14.22530944 -23.625 17.5 C-24.35396484 17.97171631 -25.08292969 18.44343262 -25.83398438 18.92944336 C-30.63946188 22.06115783 -35.33574809 25.30996889 -39.921875 28.7578125 C-42.27656695 30.16531634 -44.30014792 30.61295827 -47 31 C-44.22930558 28.05270835 -41.46920558 25.86668562 -38.02734375 23.75 C-37.05361816 23.14671875 -36.07989258 22.5434375 -35.07666016 21.921875 C-34.0407373 21.28765625 -33.00481445 20.6534375 -31.9375 20 C-29.77690569 18.66737664 -27.61675554 17.3340329 -25.45703125 16 C-24.37631348 15.33355469 -23.2955957 14.66710937 -22.18212891 13.98046875 C-19.1901314 12.11833251 -16.22156608 10.22522419 -13.26171875 8.3125 C-12.3910376 7.75175781 -11.52035645 7.19101562 -10.62329102 6.61328125 C-8.98317509 5.55416994 -7.34679944 4.48923938 -5.71459961 3.41796875 C-4.98635986 2.95003906 -4.25812012 2.48210937 -3.5078125 2 C-2.55865967 1.38125 -2.55865967 1.38125 -1.59033203 0.75 C-1.06552246 0.5025 -0.54071289 0.255 0 0 Z " fill="#31EBC4" transform="translate(678,410)"/>
<path d="M0 0 C0.33 0 0.66 0 1 0 C1 7.26 1 14.52 1 22 C1.66 22 2.32 22 3 22 C3.85220081 27.39727182 3.85788144 31.56675087 3 37 C2.9133967 40.00224785 2.93872259 42.99740691 3 46 C0.37222075 41.33025216 0.25075535 36.69699301 -0.1875 31.4375 C-0.27499512 30.42421631 -0.36249023 29.41093262 -0.45263672 28.36694336 C-1.18104082 18.83438287 -0.82125664 9.51103975 0 0 Z " fill="#052A6F" transform="translate(303,481)"/>
<path d="M0 0 C-1.22422599 3.67267796 -2.55590537 4.40190536 -5.625 6.6875 C-9.85970201 9.95756359 -13.28821678 13.36027097 -16.625 17.53125 C-17.07875 18.0159375 -17.5325 18.500625 -18 19 C-18.66 19 -19.32 19 -20 19 C-20.226875 19.5775 -20.45375 20.155 -20.6875 20.75 C-22.33038023 23.5663661 -24.39533227 25.08077114 -27 27 C-24.06149143 20.23676598 -8.34527278 0 0 0 Z " fill="#0056BC" transform="translate(378,340)"/>
<path d="M0 0 C0.66 0.33 1.32 0.66 2 1 C2 9.91 2 18.82 2 28 C-0.97 28 -3.94 28 -7 28 C-4 26 -4 26 0 26 C0 17.42 0 8.84 0 0 Z " fill="#072E67" transform="translate(492,669)"/>
<path d="M0 0 C0.66 0 1.32 0 2 0 C0.87068826 3.38793523 0.55545073 3.54189897 -2.421875 5.12109375 C-3.11796875 5.49943359 -3.8140625 5.87777344 -4.53125 6.26757812 C-5.2634375 6.65365234 -5.995625 7.03972656 -6.75 7.4375 C-11.53223925 9.9877409 -15.81004519 12.52226174 -20 16 C-22.8125 17.25 -22.8125 17.25 -25 18 C-23.71697652 14.15092955 -22.35179614 13.72263742 -18.90625 11.6796875 C-17.87628906 11.06222656 -16.84632813 10.44476563 -15.78515625 9.80859375 C-14.15900391 8.85146484 -14.15900391 8.85146484 -12.5 7.875 C-10.36399903 6.60254282 -8.22855151 5.32915599 -6.09375 4.0546875 C-4.66579102 3.21139893 -4.66579102 3.21139893 -3.20898438 2.35107422 C-1.1040899 1.18218175 -1.1040899 1.18218175 0 0 Z " fill="#0090E0" transform="translate(490,409)"/>
<path d="M0 0 C0.66 0.33 1.32 0.66 2 1 C-2.4871798 4.96890371 -7.07754818 8.58442119 -12 12 C-12.66 11.67 -13.32 11.34 -14 11 C-11.15757761 6.73636642 -8.36352185 4.9159012 -3.8046875 2.89453125 C-1.81501228 2.02802363 -1.81501228 2.02802363 0 0 Z " fill="#0F8C90" transform="translate(647,650)"/>
<path d="" fill="#1090A3" transform="translate(0,0)"/>
<path d="" fill="#149AA8" transform="translate(0,0)"/>
<path d="" fill="#1AA5AC" transform="translate(0,0)"/>
<path d="" fill="#23AFB1" transform="translate(0,0)"/>
<path d="" fill="#0C9CB0" transform="translate(0,0)"/>
<path d="M0 0 C2 1 2 1 2 1 Z " fill="#18AFAB" transform="translate(644,336)"/>
<path d="" fill="#1BA2AE" transform="translate(0,0)"/>
<path d="" fill="#22A2A9" transform="translate(0,0)"/>
<path d="" fill="#545657" transform="translate(0,0)"/>
<path d="" fill="#10979B" transform="translate(0,0)"/>
<path d="" fill="#114589" transform="translate(0,0)"/>
<path d="" fill="#139EA2" transform="translate(0,0)"/>
<path d="" fill="#129DA0" transform="translate(0,0)"/>
<path d="" fill="#0F8B9C" transform="translate(0,0)"/>
<path d="" fill="#108FA1" transform="translate(0,0)"/>
<path d="" fill="#104088" transform="translate(0,0)"/>
<path d="" fill="#1091A2" transform="translate(0,0)"/>
<path d="" fill="#104088" transform="translate(0,0)"/>
<path d="" fill="#15A9A5" transform="translate(0,0)"/>
<path d="" fill="#0F3F88" transform="translate(0,0)"/>
<path d="" fill="#1AABA5" transform="translate(0,0)"/>
<path d="" fill="#1396A9" transform="translate(0,0)"/>
<path d="" fill="#129CA9" transform="translate(0,0)"/>
<path d="" fill="#179CAB" transform="translate(0,0)"/>
<path d="" fill="#104187" transform="translate(0,0)"/>
<path d="" fill="#189EA9" transform="translate(0,0)"/>
<path d="" fill="#189DA7" transform="translate(0,0)"/>
<path d="" fill="#0B4896" transform="translate(0,0)"/>
<path d="" fill="#07459B" transform="translate(0,0)"/>
<path d="" fill="#074497" transform="translate(0,0)"/>
<path d="" fill="#1156AA" transform="translate(0,0)"/>
<path d="" fill="#2CBDB1" transform="translate(0,0)"/>
<path d="" fill="#0C549E" transform="translate(0,0)"/>
<path d="" fill="#0C55A3" transform="translate(0,0)"/>
<path d="" fill="#1F6DA8" transform="translate(0,0)"/>
<path d="" fill="#2075AA" transform="translate(0,0)"/>
<path d="" fill="#1A6BAA" transform="translate(0,0)"/>
<path d="" fill="#21A8AD" transform="translate(0,0)"/>
<path d="" fill="#18A4AD" transform="translate(0,0)"/>
<path d="" fill="#0B77C2" transform="translate(0,0)"/>
<path d="" fill="#0996AC" transform="translate(0,0)"/>
<path d="" fill="#34C6AF" transform="translate(0,0)"/>
<path d="" fill="#069AAD" transform="translate(0,0)"/>
<path d="" fill="#2FC0B1" transform="translate(0,0)"/>
<path d="" fill="#2DBCAE" transform="translate(0,0)"/>
<path d="" fill="#0A9CAC" transform="translate(0,0)"/>
<path d="" fill="#22B4AE" transform="translate(0,0)"/>
<path d="" fill="#14AEAC" transform="translate(0,0)"/>
<path d="" fill="#0F9FAF" transform="translate(0,0)"/>
<path d="" fill="#0D53A8" transform="translate(0,0)"/>
<path d="" fill="#12A2B1" transform="translate(0,0)"/>
<path d="" fill="#11A0AE" transform="translate(0,0)"/>
<path d="" fill="#13A2B0" transform="translate(0,0)"/>
<path d="" fill="#0C57AA" transform="translate(0,0)"/>
<path d="" fill="#19B3B1" transform="translate(0,0)"/>
<path d="" fill="#1BA6B0" transform="translate(0,0)"/>
<path d="" fill="#21B9AD" transform="translate(0,0)"/>
<path d="" fill="#0D59AC" transform="translate(0,0)"/>
<path d="" fill="#0C5DAD" transform="translate(0,0)"/>
<path d="" fill="#0B60AD" transform="translate(0,0)"/>
<path d="" fill="#0A5EAA" transform="translate(0,0)"/>
<path d="" fill="#1561A5" transform="translate(0,0)"/>
<path d="" fill="#1562A7" transform="translate(0,0)"/>
<path d="" fill="#216AA3" transform="translate(0,0)"/>
</svg>
